<svg width="27" height="26" viewBox="0 0 27 26" fill="none" xmlns="http://www.w3.org/2000/svg">
<path d="M21.9794 11C21.7973 11 21.1871 11.0063 21.0152 11.0188L17.5384 11.125C17.5203 11.1263 17.5023 11.1217 17.4863 11.1118C17.4703 11.1019 17.457 11.087 17.4479 11.0688L10.5061 1.2225C10.464 1.15747 10.4103 1.1039 10.3487 1.06548C10.2871 1.02706 10.2191 1.00472 10.1493 1H8.7088L12.6195 11.0625C12.6288 11.0855 12.6329 11.111 12.6312 11.1364C12.6295 11.1618 12.6222 11.1863 12.61 11.2074C12.5978 11.2285 12.5811 11.2456 12.5615 11.2569C12.542 11.2682 12.5202 11.2733 12.4984 11.2719L5.97936 11.3844C5.91152 11.3868 5.84415 11.3705 5.78272 11.3368C5.72129 11.3032 5.66752 11.2531 5.62579 11.1906L3.64365 8.37813C3.48294 8.13438 3.18187 8.00313 2.91991 8.00313H1.90956C1.84045 8.00313 1.85063 8.07875 1.86938 8.155L2.93223 12.6188C3.01257 12.8578 3.01257 13.1234 2.93223 13.3625L1.86831 17.8125C1.8367 17.9344 1.84045 18 1.96313 18H2.92312C3.35919 18 3.41866 17.9338 3.64151 17.6063L5.66114 14.75C5.70325 14.688 5.75708 14.6383 5.81843 14.6047C5.87977 14.5711 5.94695 14.5545 6.01471 14.5562L12.4797 14.725C12.5032 14.7256 12.5263 14.7329 12.5468 14.7463C12.5674 14.7597 12.5848 14.7787 12.5977 14.8018C12.6105 14.8248 12.6183 14.8511 12.6204 14.8785C12.6226 14.9059 12.6189 14.9334 12.6099 14.9588L8.7088 25H10.1359C10.2055 24.9953 10.2734 24.973 10.3349 24.9347C10.3964 24.8964 10.4501 24.843 10.4922 24.7781L17.4484 14.9375C17.4693 14.9 17.5555 14.8813 17.5925 14.8813L21.0157 14.9875C21.1925 15 21.7973 15.0063 21.98 15.0063C24.3516 15.0063 25.8516 14.2456 25.8516 13C25.8516 11.7544 24.358 11 21.9794 11Z" stroke="#034881" stroke-width="2" stroke-linecap="round" stroke-linejoin="round"/>
</svg>
