<svg width="33" height="33" viewBox="0 0 29 29" fill="none" xmlns="http://www.w3.org/2000/svg">
<g clip-path="url(#clip0_10163_60065)">
<path fill-rule="evenodd" clip-rule="evenodd" d="M24.3402 12.8216C25.0516 13.1981 25.6983 13.7699 25.939 14.4911C25.9954 14.6603 25.9955 14.8432 25.9391 15.0124C25.6989 15.7337 25.0525 16.3059 24.3412 16.6827C23.602 17.0743 22.6681 17.3253 21.6608 17.3256L18.0321 17.3265L14.5467 22.7757L13.8523 22.3316L14.5382 22.7886C14.0963 23.4519 13.4042 23.6498 12.7453 23.5558C12.6736 23.5456 12.6037 23.526 12.5371 23.4975L12.1291 23.3228C11.4506 23.0322 10.9335 22.3656 11.0546 21.5164C11.0569 21.5001 11.0597 21.4839 11.063 21.4678L11.945 17.1498L10.2751 16.8162L8.83897 18.2532C8.68444 18.4078 8.47481 18.4947 8.25621 18.4947L7.09056 18.495C6.84363 18.4951 6.60967 18.3844 6.45307 18.1935C6.29646 18.0026 6.23371 17.7515 6.28207 17.5094L6.83184 14.7568L6.28063 12.0044C6.23213 11.7623 6.29476 11.5112 6.45126 11.3202C6.60776 11.1292 6.84166 11.0184 7.0886 11.0183L8.25424 11.018C8.47284 11.018 8.68252 11.1048 8.83713 11.2593L10.2741 12.6955L11.9438 12.3611L11.0594 8.0435C11.0561 8.02739 11.0533 8.01118 11.051 7.9949C10.9295 7.14571 11.4463 6.47888 12.1246 6.18794C12.165 6.17061 12.2067 6.15655 12.2494 6.14587L12.6897 6.03568C13.404 5.81371 14.1155 6.09342 14.534 6.72082L14.5424 6.73372L18.0308 12.1811L21.6595 12.1801C22.6667 12.1799 23.6008 12.4304 24.3402 12.8216ZM13.1634 21.8791L16.8865 16.0583C17.0379 15.8215 17.2996 15.6782 17.5806 15.6782L21.6604 15.6771C22.4016 15.6769 23.0704 15.4904 23.5695 15.226C23.874 15.0647 24.0785 14.8957 24.2068 14.7522C24.0784 14.6088 23.8738 14.4399 23.5692 14.2787C23.07 14.0146 22.4011 13.8284 21.6599 13.8286L17.5802 13.8297C17.2991 13.8298 17.0374 13.6866 16.8858 13.4499L13.1596 7.63112C13.1564 7.62648 13.1534 7.62239 13.1506 7.61881C13.1391 7.62224 13.1275 7.62541 13.1158 7.62833L12.7308 7.7247C12.7051 7.73973 12.6909 7.75283 12.6841 7.76025L13.7248 12.8413C13.7688 13.0561 13.7254 13.2795 13.6043 13.4622C13.4831 13.6449 13.2942 13.7718 13.0792 13.8149L10.1652 14.3985C9.89503 14.4526 9.61564 14.3681 9.42072 14.1732L8.13979 12.893L8.48059 14.5947C8.50196 14.7014 8.50199 14.8113 8.48068 14.918L8.14077 16.6198L9.42103 15.3389C9.61584 15.144 9.89519 15.0593 10.1654 15.1133L13.0797 15.6953C13.2947 15.7383 13.4837 15.8651 13.605 16.0477C13.7262 16.2304 13.7697 16.4538 13.7258 16.6686L12.6878 21.7502C12.6978 21.761 12.7235 21.784 12.7781 21.8074L13.0638 21.9298C13.1003 21.9289 13.1178 21.9229 13.122 21.9212C13.1256 21.9198 13.1284 21.9183 13.1327 21.9148C13.1371 21.9112 13.1481 21.9012 13.1634 21.8791Z" fill="#034881"/>
</g>
<defs>
<clipPath id="clip0_10163_60065">
<rect width="19.7817" height="19.7817" fill="white" transform="translate(14.6626 0.766937) rotate(44.9849)"/>
</clipPath>
</defs>
</svg>
