<svg width="26" height="25" viewBox="0 0 26 25" fill="none" xmlns="http://www.w3.org/2000/svg">
<path d="M7.32735 22.3253L1.6547 12.5L7.32735 2.67468L18.6727 2.67468L24.3453 12.5L18.6727 22.3253L7.32735 22.3253Z" fill="#2C5484" stroke="white" stroke-width="2"/>
<path d="M14.4873 7.04688L14.2617 13.958H12.6211L12.3887 7.04688H14.4873ZM12.334 16.0977C12.334 15.806 12.4342 15.5645 12.6348 15.373C12.8398 15.1771 13.1087 15.0791 13.4414 15.0791C13.7786 15.0791 14.0475 15.1771 14.248 15.373C14.4486 15.5645 14.5488 15.806 14.5488 16.0977C14.5488 16.3802 14.4486 16.6195 14.248 16.8154C14.0475 17.0114 13.7786 17.1094 13.4414 17.1094C13.1087 17.1094 12.8398 17.0114 12.6348 16.8154C12.4342 16.6195 12.334 16.3802 12.334 16.0977Z" fill="white"/>
</svg>
