<svg width="24" height="25" viewBox="0 0 24 25" fill="none" xmlns="http://www.w3.org/2000/svg">
<path d="M21 13.25C21.4142 13.25 21.75 12.9142 21.75 12.5C21.75 12.0858 21.4142 11.75 21 11.75V13.25ZM2.26053 11.9697C1.96764 12.2626 1.96764 12.7374 2.26053 13.0303L7.0335 17.8033C7.3264 18.0962 7.80127 18.0962 8.09416 17.8033C8.38706 17.5104 8.38706 17.0355 8.09416 16.7426L3.85152 12.5L8.09416 8.25736C8.38706 7.96447 8.38706 7.48959 8.09416 7.1967C7.80127 6.90381 7.3264 6.90381 7.0335 7.1967L2.26053 11.9697ZM21 11.75L2.79086 11.75V13.25L21 13.25V11.75Z" fill="white"/>
</svg>
