<svg width="30" height="31" viewBox="0 0 30 31" fill="none" xmlns="http://www.w3.org/2000/svg">
<path d="M15 3.19531C12.3589 3.19531 10.1953 5.35895 10.1953 8C10.1953 9.51242 10.9056 10.8673 12.0081 11.75H7.5L1.875 28.625H28.125L22.5 11.75H17.9919C19.0944 10.8673 19.8047 9.51242 19.8047 8C19.8047 5.35895 17.6411 3.19531 15 3.19531ZM15 5.30469C16.5011 5.30469 17.6953 6.49895 17.6953 8C17.6953 9.50105 16.5011 10.6953 15 10.6953C13.4989 10.6953 12.3047 9.50105 12.3047 8C12.3047 6.49895 13.4989 5.30469 15 5.30469ZM10.1827 17.1963H11.5597V19.1453L13.5444 17.1962H15.143L12.5718 19.7246L15.4077 22.5355H13.684L11.5597 20.4327V22.5355H10.1827V17.1963ZM17.2101 18.4408C17.489 18.4408 17.7346 18.4955 17.9468 18.6052C18.1589 18.7149 18.3533 18.8877 18.5298 19.1238V18.5302H19.8172V22.1315C19.8172 22.7752 19.6133 23.2664 19.2056 23.6049C18.8003 23.9459 18.2114 24.1163 17.4389 24.1163C17.1886 24.1163 16.9467 24.0972 16.7129 24.0591C16.4738 24.0196 16.2382 23.961 16.0084 23.8839V22.886C16.2326 23.0148 16.452 23.1102 16.6664 23.1722C16.8811 23.2365 17.0969 23.2688 17.3139 23.2688C17.7335 23.2688 18.041 23.177 18.2365 22.9934C18.432 22.8099 18.5298 22.5226 18.5298 22.1316V21.8562C18.3534 22.0897 18.159 22.2614 17.9468 22.3711C17.7347 22.4807 17.489 22.5356 17.2101 22.5356C16.7212 22.5356 16.3172 22.3438 15.9978 21.9599C15.6783 21.5737 15.5185 21.0825 15.5185 20.4865C15.5185 19.888 15.6783 19.3981 15.9978 19.0166C16.3172 18.6328 16.7212 18.4408 17.2101 18.4408ZM17.6858 19.3634C17.4211 19.3634 17.2148 19.4613 17.067 19.6567C16.9192 19.8523 16.8453 20.1288 16.8453 20.4865C16.8453 20.8537 16.9168 21.1326 17.0599 21.3232C17.2029 21.5116 17.4116 21.6058 17.6858 21.6058C17.9528 21.6058 18.1601 21.508 18.308 21.3125C18.4558 21.117 18.5297 20.8416 18.5297 20.4864C18.5297 20.1288 18.4558 19.8522 18.308 19.6568C18.1601 19.4612 17.9528 19.3634 17.6857 19.3634H17.6858Z" fill="#2C5484"/>
</svg>
