<svg width="24" height="25" viewBox="0 0 24 25" fill="none" xmlns="http://www.w3.org/2000/svg">
<path d="M10.6 16.7L17.65 9.65L16.25 8.25L10.6 13.9L7.75 11.05L6.35 12.45L10.6 16.7ZM5 21.5C4.45 21.5 3.979 21.304 3.587 20.912C3.195 20.52 2.99934 20.0493 3 19.5V5.5C3 4.95 3.196 4.479 3.588 4.087C3.98 3.695 4.45067 3.49934 5 3.5H19C19.55 3.5 20.021 3.696 20.413 4.088C20.805 4.48 21.0007 4.95067 21 5.5V19.5C21 20.05 20.804 20.521 20.412 20.913C20.02 21.305 19.5493 21.5007 19 21.5H5ZM5 19.5H19V5.5H5V19.5Z" fill="white"/>
</svg>
