<svg width="25" height="24" viewBox="0 0 25 24" fill="none" xmlns="http://www.w3.org/2000/svg">
<g clip-path="url(#clip0_3160_29952)">
<path d="M10.722 10.4699L10.352 2.08789L12.285 2.60589L15.095 11.6409L20.356 13.0509C20.5463 13.1018 20.7247 13.1898 20.881 13.3097C21.0373 13.4296 21.1684 13.5791 21.267 13.7497C21.3655 13.9202 21.4294 14.1085 21.4552 14.3038C21.4809 14.4991 21.468 14.6976 21.417 14.8879C21.366 15.0782 21.2781 15.2566 21.1582 15.4129C21.0383 15.5692 20.8888 15.7003 20.7182 15.7988C20.5477 15.8974 20.3593 15.9613 20.164 15.9871C19.9687 16.0128 19.7703 15.9998 19.58 15.9489L4.608 11.9369L5.384 9.03889L5.626 9.10389L6.54 12.4539L3.913 11.7509C3.69774 11.693 3.508 11.5648 3.37393 11.3867C3.23985 11.2086 3.16913 10.9908 3.173 10.7679L3.263 5.36489L4.712 5.75289L5.626 9.10389L10.722 10.4699V10.4699ZM4.468 18.9999H20.468V20.9999H4.468V18.9999Z" fill="#034881"/>
</g>
<defs>
<clipPath id="clip0_3160_29952">
<rect width="24" height="24" fill="white" transform="translate(0.851562)"/>
</clipPath>
</defs>
</svg>
