<svg width="30" height="31" viewBox="0 0 30 31" fill="none" xmlns="http://www.w3.org/2000/svg">
<path d="M15 1.4375C12.573 1.4375 10.6055 3.40508 10.6055 5.83203C10.6055 6.83164 10.9496 7.73035 11.5118 8.46875H7.96875L2.69531 20.7734H27.3047L22.0312 8.46875H18.4882C19.0504 7.73035 19.3945 6.83164 19.3945 5.83203C19.3945 3.40508 17.427 1.4375 15 1.4375ZM15 3.19531C16.4563 3.19531 17.6367 4.37574 17.6367 5.83203C17.6367 7.28826 16.4563 8.46875 15 8.46875C13.5437 8.46875 12.3633 7.28826 12.3633 5.83203C12.3633 4.37574 13.5437 3.19531 15 3.19531ZM14.7529 22.5312C13.8639 22.5939 13.032 22.9918 12.4252 23.6444C11.8185 24.297 11.4822 25.1558 11.4844 26.0469C11.4844 26.9793 11.8548 27.8735 12.5141 28.5328C13.1734 29.1921 14.0676 29.5625 15 29.5625C15.9324 29.5625 16.8266 29.1921 17.4859 28.5328C18.1452 27.8735 18.5156 26.9793 18.5156 26.0469C18.5168 25.5636 18.4184 25.0854 18.2265 24.6419C18.0345 24.1984 17.7532 23.7992 17.4001 23.4693C17.047 23.1394 16.6297 22.8858 16.1742 22.7244C15.7188 22.563 15.2349 22.4973 14.7529 22.5312Z" fill="#2C5484"/>
</svg>
