<svg width="25" height="24" viewBox="0 0 25 24" fill="none" xmlns="http://www.w3.org/2000/svg">
<path d="M18.4687 4.47942C16.8774 2.88812 14.7191 1.99414 12.4687 1.99414C10.2182 1.99414 8.05998 2.88812 6.46868 4.47942C4.87738 6.07072 3.9834 8.22898 3.9834 10.4794C3.9834 12.7299 4.87738 14.8881 6.46868 16.4794L11.7387 21.7594C11.8316 21.8531 11.9422 21.9275 12.0641 21.9783C12.186 22.0291 12.3167 22.0552 12.4487 22.0552C12.5807 22.0552 12.7114 22.0291 12.8333 21.9783C12.9551 21.9275 13.0657 21.8531 13.1587 21.7594L18.4687 16.4294C20.0533 14.8447 20.9436 12.6955 20.9436 10.4544C20.9436 8.21337 20.0533 6.0641 18.4687 4.47942ZM17.0387 14.9994L12.4687 19.5894L7.89868 14.9994C6.99582 14.0957 6.38116 12.9447 6.13237 11.6917C5.88359 10.4388 6.01187 9.14017 6.50098 7.9601C6.9901 6.78004 7.8181 5.77147 8.88031 5.0619C9.94252 4.35233 11.1913 3.9736 12.4687 3.9736C13.7461 3.9736 14.9948 4.35233 16.057 5.0619C17.1193 5.77147 17.9473 6.78004 18.4364 7.9601C18.9255 9.14017 19.0538 10.4388 18.805 11.6917C18.5562 12.9447 17.9415 14.0957 17.0387 14.9994ZM9.46868 7.40942C8.66139 8.21919 8.20807 9.31599 8.20807 10.4594C8.20807 11.6029 8.66139 12.6996 9.46868 13.5094C10.0684 14.1102 10.8323 14.5205 11.6643 14.6888C12.4964 14.8571 13.3596 14.776 14.1458 14.4556C14.9319 14.1351 15.6059 13.5897 16.0832 12.8877C16.5605 12.1856 16.8198 11.3583 16.8287 10.5094C16.8332 9.94263 16.724 9.38068 16.5076 8.85681C16.2912 8.33294 15.9719 7.85778 15.5687 7.45942C15.1723 7.054 14.6998 6.73096 14.1781 6.50889C13.6564 6.28682 13.096 6.1701 12.5291 6.16545C11.9621 6.1608 11.3999 6.26832 10.8747 6.48181C10.3494 6.6953 9.8716 7.01055 9.46868 7.40942ZM14.1587 12.0894C13.7797 12.4742 13.2789 12.7153 12.7418 12.7717C12.2047 12.828 11.6647 12.6961 11.2142 12.3983C10.7636 12.1006 10.4305 11.6557 10.2717 11.1395C10.1129 10.6233 10.1383 10.0681 10.3436 9.56858C10.5489 9.06909 10.9214 8.65644 11.3973 8.40116C11.8731 8.14588 12.4229 8.06383 12.9526 8.16904C13.4823 8.27425 13.959 8.56018 14.3012 8.97795C14.6434 9.39572 14.8298 9.91939 14.8287 10.4594C14.8141 11.0767 14.5552 11.6629 14.1087 12.0894H14.1587Z" fill="#034881"/>
</svg>
