<svg width="30" height="30" viewBox="0 0 30 30" fill="none" xmlns="http://www.w3.org/2000/svg">
<path fill-rule="evenodd" clip-rule="evenodd" d="M5 2.5H25C26.375 2.5 27.5 3.625 27.5 5V20C27.5 21.375 26.375 22.5 25 22.5H7.5L2.5 27.5L2.5125 5C2.5125 3.625 3.625 2.5 5 2.5ZM6.4625 20H25V5H5V21.4625L5.725 20.7375L6.4625 20ZM13.125 17.5H22.5V15H15.625L13.125 17.5ZM17.95 9.275C18.2 9.525 18.2 9.9125 17.95 10.1625L10.5875 17.5H7.5V14.4125L14.85 7.0625C15.1 6.8125 15.4875 6.8125 15.7375 7.0625L17.95 9.275Z" fill="white"/>
</svg>
