<svg width="25" height="25" viewBox="0 0 25 25" fill="none" xmlns="http://www.w3.org/2000/svg">
<path d="M6.82735 22.3253L1.1547 12.5L6.82735 2.67468L18.1727 2.67468L23.8453 12.5L18.1727 22.3253L6.82735 22.3253Z" fill="white" stroke="#034881" stroke-width="2"/>
<path d="M13.9873 7.04688L13.7617 13.958H12.1211L11.8887 7.04688H13.9873ZM11.834 16.0977C11.834 15.806 11.9342 15.5645 12.1348 15.373C12.3398 15.1771 12.6087 15.0791 12.9414 15.0791C13.2786 15.0791 13.5475 15.1771 13.748 15.373C13.9486 15.5645 14.0488 15.806 14.0488 16.0977C14.0488 16.3802 13.9486 16.6195 13.748 16.8154C13.5475 17.0114 13.2786 17.1094 12.9414 17.1094C12.6087 17.1094 12.3398 17.0114 12.1348 16.8154C11.9342 16.6195 11.834 16.3802 11.834 16.0977Z" fill="#034881"/>
</svg>
