<svg width="31" height="30" viewBox="0 0 31 30" fill="none" xmlns="http://www.w3.org/2000/svg">
<path d="M20.5 6.25C21.1904 6.25 21.75 5.69036 21.75 5C21.75 4.30964 21.1904 3.75 20.5 3.75C19.8096 3.75 19.25 4.30964 19.25 5C19.25 5.69036 19.8096 6.25 20.5 6.25Z" stroke="#A70606" stroke-width="2" stroke-linecap="round" stroke-linejoin="round"/>
<path d="M23.0001 23.75L24.2501 15L16.9126 16.175" stroke="#A70606" stroke-width="2" stroke-linecap="round" stroke-linejoin="round"/>
<path d="M6.75 10L10.5 6.25L17.375 10L14.6125 13.875" stroke="#A70606" stroke-width="2" stroke-linecap="round" stroke-linejoin="round"/>
<path d="M5.80006 18.1001C5.56256 18.8251 5.46256 19.6001 5.51256 20.4001C5.56505 21.2192 5.77837 22.02 6.14035 22.7567C6.50233 23.4934 7.00588 24.1515 7.62224 24.6936C8.23859 25.2357 8.95569 25.651 9.73258 25.916C10.5095 26.1809 11.3309 26.2902 12.1501 26.2376C12.9626 26.1876 13.7126 25.9876 14.4001 25.6626" stroke="#A70606" stroke-width="2" stroke-linecap="round" stroke-linejoin="round"/>
<path d="M17.7001 21.8998C17.9376 21.1748 18.0376 20.3998 17.9876 19.5998C17.9351 18.7807 17.7218 17.9799 17.3598 17.2433C16.9978 16.5066 16.4943 15.8484 15.8779 15.3063C15.2616 14.7643 14.5445 14.3489 13.7676 14.084C12.9907 13.8191 12.1692 13.7098 11.3501 13.7623C10.5376 13.8123 9.7876 14.0123 9.1001 14.3373" stroke="#A70606" stroke-width="2" stroke-linecap="round" stroke-linejoin="round"/>
</svg>
