<svg width="31" height="30" viewBox="0 0 31 30" fill="none" xmlns="http://www.w3.org/2000/svg">
<path d="M28 20H25.275C25.4205 19.5992 25.4966 19.1764 25.5 18.75V12.5C25.5 11.5054 25.1049 10.5516 24.4017 9.84835C23.6984 9.14509 22.7446 8.75 21.75 8.75H14.25C13.2554 8.75 12.3016 9.14509 11.5983 9.84835C10.8951 10.5516 10.5 11.5054 10.5 12.5V18.75C10.5034 19.1764 10.5795 19.5992 10.725 20H9.25C8.91848 20 8.60054 19.8683 8.36612 19.6339C8.1317 19.3995 8 19.0815 8 18.75V6.25C8 5.25544 7.60491 4.30161 6.90165 3.59835C6.19839 2.89509 5.24456 2.5 4.25 2.5H3C2.66848 2.5 2.35054 2.6317 2.11612 2.86612C1.8817 3.10054 1.75 3.41848 1.75 3.75C1.75 4.08152 1.8817 4.39946 2.11612 4.63388C2.35054 4.8683 2.66848 5 3 5H4.25C4.58152 5 4.89946 5.1317 5.13388 5.36612C5.3683 5.60054 5.5 5.91848 5.5 6.25V18.75C5.50461 19.5711 5.7786 20.368 6.2799 21.0184C6.78121 21.6687 7.48211 22.1365 8.275 22.35C8.04479 22.9132 7.95507 23.5239 8.01358 24.1295C8.07209 24.7351 8.27707 25.3174 8.61084 25.8261C8.94461 26.3348 9.39713 26.7546 9.92937 27.0494C10.4616 27.3442 11.0576 27.505 11.6659 27.518C12.2741 27.5311 12.8765 27.3959 13.4208 27.1242C13.9652 26.8525 14.4353 26.4524 14.7906 25.9585C15.1458 25.4646 15.3755 24.8916 15.4599 24.2891C15.5443 23.6866 15.4809 23.0725 15.275 22.5H19.475C19.2694 23.0664 19.2034 23.674 19.2824 24.2714C19.3615 24.8687 19.5833 25.4383 19.9291 25.9317C20.275 26.4251 20.7346 26.828 21.2692 27.1061C21.8037 27.3842 22.3974 27.5294 23 27.5294C23.6026 27.5294 24.1963 27.3842 24.7308 27.1061C25.2654 26.828 25.725 26.4251 26.0709 25.9317C26.4167 25.4383 26.6385 24.8687 26.7176 24.2714C26.7966 23.674 26.7306 23.0664 26.525 22.5H28C28.3315 22.5 28.6495 22.3683 28.8839 22.1339C29.1183 21.8995 29.25 21.5815 29.25 21.25C29.25 20.9185 29.1183 20.6005 28.8839 20.3661C28.6495 20.1317 28.3315 20 28 20ZM11.75 25C11.5028 25 11.2611 24.9267 11.0555 24.7893C10.85 24.652 10.6898 24.4568 10.5951 24.2284C10.5005 23.9999 10.4758 23.7486 10.524 23.5061C10.5722 23.2637 10.6913 23.0409 10.8661 22.8661C11.0409 22.6913 11.2637 22.5723 11.5061 22.524C11.7486 22.4758 11.9999 22.5005 12.2284 22.5952C12.4568 22.6898 12.652 22.85 12.7893 23.0555C12.9267 23.2611 13 23.5028 13 23.75C13 24.0815 12.8683 24.3995 12.6339 24.6339C12.3995 24.8683 12.0815 25 11.75 25ZM14.25 20C13.9185 20 13.6005 19.8683 13.3661 19.6339C13.1317 19.3995 13 19.0815 13 18.75V12.5C13 12.1685 13.1317 11.8505 13.3661 11.6161C13.6005 11.3817 13.9185 11.25 14.25 11.25H21.75C22.0815 11.25 22.3995 11.3817 22.6339 11.6161C22.8683 11.8505 23 12.1685 23 12.5V18.75C23 19.0815 22.8683 19.3995 22.6339 19.6339C22.3995 19.8683 22.0815 20 21.75 20H14.25ZM23 25C22.7528 25 22.5111 24.9267 22.3055 24.7893C22.1 24.652 21.9398 24.4568 21.8451 24.2284C21.7505 23.9999 21.7258 23.7486 21.774 23.5061C21.8223 23.2637 21.9413 23.0409 22.1161 22.8661C22.2909 22.6913 22.5137 22.5723 22.7561 22.524C22.9986 22.4758 23.2499 22.5005 23.4784 22.5952C23.7068 22.6898 23.902 22.85 24.0393 23.0555C24.1767 23.2611 24.25 23.5028 24.25 23.75C24.25 24.0815 24.1183 24.3995 23.8839 24.6339C23.6495 24.8683 23.3315 25 23 25Z" fill="#A70606"/>
</svg>
