<svg width="68" height="25" viewBox="0 0 68 25" fill="none" xmlns="http://www.w3.org/2000/svg">
<path d="M12.7969 25C10.1701 25 7.89202 24.5023 5.9626 23.5069C4.03318 22.5116 2.55706 21.0764 1.53424 19.2014C0.511412 17.3264 0 15.1042 0 12.5347C0 9.96528 0.511412 7.74306 1.53424 5.86806C2.55706 3.96991 4.02156 2.52315 5.92773 1.52778C7.85715 0.50926 10.1236 0 12.7272 0C14.8891 0 16.8882 0.370371 18.7247 1.11111C20.5611 1.85185 21.921 2.83565 22.8043 4.0625C23.0833 4.43287 23.2228 4.81482 23.2228 5.20833C23.2228 5.78704 22.9089 6.30787 22.2813 6.77083C22.0024 6.97916 21.6537 7.08333 21.2352 7.08333C20.8865 7.08333 20.5379 7.01389 20.1892 6.875C19.8405 6.71296 19.5499 6.49305 19.3174 6.21528C18.5271 5.3125 17.6089 4.66435 16.5628 4.27083C15.5167 3.85417 14.2382 3.64583 12.7272 3.64583C10.1934 3.64583 8.21747 4.43287 6.79946 6.00695C5.38145 7.55787 4.67245 9.73379 4.67245 12.5347C4.67245 15.3125 5.38145 17.4769 6.79946 19.0278C8.24071 20.5787 10.2399 21.3542 12.7969 21.3542C15.7259 21.3542 18.0622 20.4977 19.8056 18.7847C20.5262 18.1134 21.1887 17.7778 21.7931 17.7778C22.2116 17.7778 22.5951 17.9167 22.9438 18.1944C23.4785 18.6574 23.7458 19.1667 23.7458 19.7222C23.7458 20.1389 23.5947 20.544 23.2925 20.9375C22.2929 22.2106 20.8633 23.206 19.0036 23.9236C17.1672 24.6412 15.0983 25 12.7969 25Z" fill="#034881"/>
<path d="M58.4459 25C56.1678 25 54.0292 24.6296 52.03 23.8889C50.0309 23.125 48.2991 22.037 46.8346 20.625C46.4859 20.2778 46.3115 19.8843 46.3115 19.4444C46.3115 18.9352 46.544 18.4491 47.0089 17.9861C47.3808 17.6157 47.7876 17.4306 48.2293 17.4306C48.6942 17.4306 49.2521 17.6968 49.903 18.2292C50.9956 19.2245 52.2857 20 53.7735 20.5556C55.2845 21.088 56.842 21.3542 58.4459 21.3542C59.9802 21.3542 61.1773 21.0995 62.0375 20.5903C62.8976 20.0579 63.3276 19.3171 63.3276 18.3681C63.3276 17.3727 62.8627 16.5741 61.9328 15.9722C61.003 15.3472 59.4223 14.7917 57.1907 14.3056C53.6805 13.5417 51.1234 12.5347 49.5195 11.2847C47.9387 10.0347 47.1484 8.42593 47.1484 6.45833C47.1484 5.20833 47.5668 4.09722 48.4037 3.125C49.2405 2.12963 50.4028 1.36574 51.8906 0.833333C53.4016 0.277778 55.1218 0 57.0512 0C59.2131 0 61.1309 0.358797 62.8046 1.07639C64.5015 1.77083 65.7917 2.75463 66.675 4.02778C66.9772 4.51389 67.1283 4.93056 67.1283 5.27778C67.1051 5.85648 66.8145 6.35416 66.2566 6.77083C65.9544 6.97916 65.6057 7.08333 65.2105 7.08333C64.4899 7.08333 63.8971 6.80555 63.4322 6.25C62.7581 5.43982 61.8515 4.80324 60.7124 4.34028C59.5966 3.87731 58.3762 3.64583 57.0512 3.64583C55.4007 3.64583 54.1106 3.90046 53.1807 4.40972C52.2741 4.89583 51.8208 5.5787 51.8208 6.45833C51.8208 7.33796 52.2625 8.06713 53.1459 8.64583C54.0524 9.20139 55.6099 9.7338 57.8183 10.2431C60.2591 10.8218 62.2234 11.4815 63.7112 12.2222C65.1989 12.9398 66.2798 13.7963 66.954 14.7917C67.6514 15.787 68.0001 16.9792 68.0001 18.3681C68.0001 19.6875 67.6049 20.8565 66.8145 21.875C66.0241 22.8704 64.9083 23.6458 63.4671 24.2014C62.0258 24.7338 60.3521 25 58.4459 25Z" fill="#034881"/>
<path fill-rule="evenodd" clip-rule="evenodd" d="M29.4057 24.6528C28.7286 24.6528 28.187 24.473 27.7807 24.1134C27.3745 23.7538 27.1714 23.2594 27.1714 22.6301V5.70723C27.1714 4.13405 27.6228 2.90923 28.5255 2.03274C29.4509 1.15626 30.726 0.718018 32.351 0.718018H42.8794C43.5564 0.718018 44.0755 0.875335 44.4366 1.18997C44.7977 1.48213 44.9783 1.90914 44.9783 2.47099C44.9783 3.01036 44.7864 3.43736 44.4028 3.752C44.0417 4.04416 43.5339 4.19024 42.8794 4.19024H33.1296C32.6782 4.19024 32.3171 4.33632 32.0463 4.62848C31.798 4.92064 31.6739 5.32517 31.6739 5.84207V10.865H39.3248L42.37 12.2134C42.3936 12.3395 42.4054 12.4743 42.4054 12.618C42.4054 12.7518 42.3936 12.8786 42.37 12.9986L39.0201 14.3372H31.6739V22.6301C31.6739 23.2369 31.4595 23.7313 31.0307 24.1134C30.6244 24.473 30.0828 24.6528 29.4057 24.6528Z" fill="#034881"/>
<g filter="url(#filter0_d_2526_26972)">
<path d="M42.9306 12.375L33.1394 8.25H32.7628L32.6373 8.375V8.5V8.75L33.767 12.5V12.75V13.375L32.6373 16L32.3862 16.625V16.875L32.5118 17L32.7628 17.125L42.9306 13.125L43.0562 12.875V12.625L42.9306 12.375Z" fill="url(#paint0_linear_2526_26972)"/>
</g>
<defs>
<filter id="filter0_d_2526_26972" x="30.3862" y="8.25" width="12.6699" height="10.875" filterUnits="userSpaceOnUse" color-interpolation-filters="sRGB">
<feFlood flood-opacity="0" result="BackgroundImageFix"/>
<feColorMatrix in="SourceAlpha" type="matrix" values="0 0 0 0 0 0 0 0 0 0 0 0 0 0 0 0 0 0 127 0" result="hardAlpha"/>
<feOffset dx="-1" dy="1"/>
<feGaussianBlur stdDeviation="0.5"/>
<feComposite in2="hardAlpha" operator="out"/>
<feColorMatrix type="matrix" values="0 0 0 0 0 0 0 0 0 0 0 0 0 0 0 0 0 0 0.5 0"/>
<feBlend mode="normal" in2="BackgroundImageFix" result="effect1_dropShadow_2526_26972"/>
<feBlend mode="normal" in="SourceGraphic" in2="effect1_dropShadow_2526_26972" result="shape"/>
</filter>
<linearGradient id="paint0_linear_2526_26972" x1="32.3862" y1="8.25" x2="32.3862" y2="17.25" gradientUnits="userSpaceOnUse">
<stop stop-color="#FF0000"/>
<stop offset="0.51726" stop-color="#8F0404"/>
<stop offset="1" stop-color="#FF0000"/>
</linearGradient>
</defs>
</svg>
